<mxfile host="app.diagrams.net" modified="2024-03-28T11:02:54.700Z" agent="Mozilla/5.0 (Windows NT 10.0; Win64; x64) AppleWebKit/537.36 (KHTML, like Gecko) Chrome/123.0.0.0 Safari/537.36" etag="sheVfk5RxmI95gc5EEts" version="23.0.1" type="device">
  <diagram name="Page-1" id="yNyLFKjUvOLV2bvvHchC">
    <mxGraphModel dx="1870" dy="1074" grid="1" gridSize="10" guides="1" tooltips="1" connect="1" arrows="1" fold="1" page="1" pageScale="1" pageWidth="850" pageHeight="1100" math="0" shadow="0">
      <root>
        <mxCell id="0" />
        <mxCell id="1" parent="0" />
        <mxCell id="tA5Uz_ItL0AC_Jkjv0OO-1" value="Users" style="rounded=0;whiteSpace=wrap;html=1;" parent="1" vertex="1">
          <mxGeometry x="-260" y="240" width="120" height="50" as="geometry" />
        </mxCell>
        <mxCell id="tA5Uz_ItL0AC_Jkjv0OO-3" value="email" style="ellipse;whiteSpace=wrap;html=1;" parent="1" vertex="1">
          <mxGeometry x="-320" y="130" width="75" height="40" as="geometry" />
        </mxCell>
        <mxCell id="tA5Uz_ItL0AC_Jkjv0OO-4" value="password" style="ellipse;whiteSpace=wrap;html=1;" parent="1" vertex="1">
          <mxGeometry x="-380" y="190" width="75" height="40" as="geometry" />
        </mxCell>
        <mxCell id="tA5Uz_ItL0AC_Jkjv0OO-5" value="user_id" style="ellipse;whiteSpace=wrap;html=1;" parent="1" vertex="1">
          <mxGeometry x="-410" y="270" width="75" height="40" as="geometry" />
        </mxCell>
        <mxCell id="tA5Uz_ItL0AC_Jkjv0OO-6" value="name" style="ellipse;whiteSpace=wrap;html=1;" parent="1" vertex="1">
          <mxGeometry x="-215" y="120" width="75" height="40" as="geometry" />
        </mxCell>
        <mxCell id="tA5Uz_ItL0AC_Jkjv0OO-14" value="" style="endArrow=none;html=1;rounded=0;entryX=0.5;entryY=1;entryDx=0;entryDy=0;exitX=0.25;exitY=0;exitDx=0;exitDy=0;" parent="1" source="tA5Uz_ItL0AC_Jkjv0OO-1" target="tA5Uz_ItL0AC_Jkjv0OO-3" edge="1">
          <mxGeometry width="50" height="50" relative="1" as="geometry">
            <mxPoint x="-174" y="156" as="sourcePoint" />
            <mxPoint x="-212" y="110" as="targetPoint" />
          </mxGeometry>
        </mxCell>
        <mxCell id="tA5Uz_ItL0AC_Jkjv0OO-15" value="" style="endArrow=none;html=1;rounded=0;entryX=1;entryY=1;entryDx=0;entryDy=0;exitX=0;exitY=0;exitDx=0;exitDy=0;" parent="1" source="tA5Uz_ItL0AC_Jkjv0OO-1" target="tA5Uz_ItL0AC_Jkjv0OO-4" edge="1">
          <mxGeometry width="50" height="50" relative="1" as="geometry">
            <mxPoint x="-164" y="166" as="sourcePoint" />
            <mxPoint x="-202" y="120" as="targetPoint" />
          </mxGeometry>
        </mxCell>
        <mxCell id="tA5Uz_ItL0AC_Jkjv0OO-16" value="" style="endArrow=none;html=1;rounded=0;entryX=1;entryY=0.5;entryDx=0;entryDy=0;exitX=0;exitY=0.75;exitDx=0;exitDy=0;" parent="1" source="tA5Uz_ItL0AC_Jkjv0OO-1" target="tA5Uz_ItL0AC_Jkjv0OO-5" edge="1">
          <mxGeometry width="50" height="50" relative="1" as="geometry">
            <mxPoint x="-154" y="176" as="sourcePoint" />
            <mxPoint x="-192" y="130" as="targetPoint" />
          </mxGeometry>
        </mxCell>
        <mxCell id="tA5Uz_ItL0AC_Jkjv0OO-18" value="" style="endArrow=none;html=1;rounded=0;entryX=0.5;entryY=1;entryDx=0;entryDy=0;exitX=0.5;exitY=0;exitDx=0;exitDy=0;" parent="1" source="tA5Uz_ItL0AC_Jkjv0OO-1" target="tA5Uz_ItL0AC_Jkjv0OO-6" edge="1">
          <mxGeometry width="50" height="50" relative="1" as="geometry">
            <mxPoint x="-144" y="186" as="sourcePoint" />
            <mxPoint x="-182" y="140" as="targetPoint" />
          </mxGeometry>
        </mxCell>
        <mxCell id="tA5Uz_ItL0AC_Jkjv0OO-20" value="Admin" style="rounded=0;whiteSpace=wrap;html=1;" parent="1" vertex="1">
          <mxGeometry x="250" y="240" width="120" height="50" as="geometry" />
        </mxCell>
        <mxCell id="tA5Uz_ItL0AC_Jkjv0OO-21" value="email" style="ellipse;whiteSpace=wrap;html=1;" parent="1" vertex="1">
          <mxGeometry x="350" y="90" width="75" height="40" as="geometry" />
        </mxCell>
        <mxCell id="tA5Uz_ItL0AC_Jkjv0OO-22" value="password" style="ellipse;whiteSpace=wrap;html=1;" parent="1" vertex="1">
          <mxGeometry x="250" y="110" width="75" height="40" as="geometry" />
        </mxCell>
        <mxCell id="tA5Uz_ItL0AC_Jkjv0OO-23" value="user_id" style="ellipse;whiteSpace=wrap;html=1;" parent="1" vertex="1">
          <mxGeometry x="190" y="150" width="75" height="40" as="geometry" />
        </mxCell>
        <mxCell id="tA5Uz_ItL0AC_Jkjv0OO-24" value="name" style="ellipse;whiteSpace=wrap;html=1;" parent="1" vertex="1">
          <mxGeometry x="440" y="110" width="75" height="40" as="geometry" />
        </mxCell>
        <mxCell id="tA5Uz_ItL0AC_Jkjv0OO-25" value="" style="endArrow=none;html=1;rounded=0;entryX=0.5;entryY=1;entryDx=0;entryDy=0;exitX=0.75;exitY=0;exitDx=0;exitDy=0;" parent="1" source="tA5Uz_ItL0AC_Jkjv0OO-20" target="tA5Uz_ItL0AC_Jkjv0OO-21" edge="1">
          <mxGeometry width="50" height="50" relative="1" as="geometry">
            <mxPoint x="336" y="136" as="sourcePoint" />
            <mxPoint x="298" y="90" as="targetPoint" />
          </mxGeometry>
        </mxCell>
        <mxCell id="tA5Uz_ItL0AC_Jkjv0OO-26" value="" style="endArrow=none;html=1;rounded=0;entryX=0.5;entryY=1;entryDx=0;entryDy=0;exitX=0.5;exitY=0;exitDx=0;exitDy=0;" parent="1" source="tA5Uz_ItL0AC_Jkjv0OO-20" target="tA5Uz_ItL0AC_Jkjv0OO-22" edge="1">
          <mxGeometry width="50" height="50" relative="1" as="geometry">
            <mxPoint x="346" y="146" as="sourcePoint" />
            <mxPoint x="308" y="100" as="targetPoint" />
          </mxGeometry>
        </mxCell>
        <mxCell id="tA5Uz_ItL0AC_Jkjv0OO-27" value="" style="endArrow=none;html=1;rounded=0;exitX=0.25;exitY=0;exitDx=0;exitDy=0;entryX=0.5;entryY=1;entryDx=0;entryDy=0;" parent="1" source="tA5Uz_ItL0AC_Jkjv0OO-20" target="tA5Uz_ItL0AC_Jkjv0OO-23" edge="1">
          <mxGeometry width="50" height="50" relative="1" as="geometry">
            <mxPoint x="250" y="257" as="sourcePoint" />
            <mxPoint x="270" y="180" as="targetPoint" />
          </mxGeometry>
        </mxCell>
        <mxCell id="tA5Uz_ItL0AC_Jkjv0OO-28" value="" style="endArrow=none;html=1;rounded=0;entryX=0;entryY=1;entryDx=0;entryDy=0;exitX=1;exitY=0;exitDx=0;exitDy=0;" parent="1" source="tA5Uz_ItL0AC_Jkjv0OO-20" target="tA5Uz_ItL0AC_Jkjv0OO-24" edge="1">
          <mxGeometry width="50" height="50" relative="1" as="geometry">
            <mxPoint x="366" y="166" as="sourcePoint" />
            <mxPoint x="328" y="120" as="targetPoint" />
          </mxGeometry>
        </mxCell>
        <mxCell id="tA5Uz_ItL0AC_Jkjv0OO-46" value="manages" style="rhombus;whiteSpace=wrap;html=1;" parent="1" vertex="1">
          <mxGeometry x="270" y="370" width="80" height="80" as="geometry" />
        </mxCell>
        <mxCell id="tA5Uz_ItL0AC_Jkjv0OO-47" value="" style="endArrow=none;html=1;rounded=0;entryX=0.5;entryY=0;entryDx=0;entryDy=0;exitX=0.5;exitY=1;exitDx=0;exitDy=0;" parent="1" source="tA5Uz_ItL0AC_Jkjv0OO-20" target="tA5Uz_ItL0AC_Jkjv0OO-46" edge="1">
          <mxGeometry width="50" height="50" relative="1" as="geometry">
            <mxPoint x="260" y="275" as="sourcePoint" />
            <mxPoint x="70" y="275" as="targetPoint" />
          </mxGeometry>
        </mxCell>
        <mxCell id="_jzDKBRbg1718fUS8csa-8" value="1" style="edgeLabel;html=1;align=center;verticalAlign=middle;resizable=0;points=[];" vertex="1" connectable="0" parent="tA5Uz_ItL0AC_Jkjv0OO-47">
          <mxGeometry x="0.4611" relative="1" as="geometry">
            <mxPoint as="offset" />
          </mxGeometry>
        </mxCell>
        <mxCell id="tA5Uz_ItL0AC_Jkjv0OO-48" value="views" style="rhombus;whiteSpace=wrap;html=1;" parent="1" vertex="1">
          <mxGeometry x="-130" y="370" width="80" height="80" as="geometry" />
        </mxCell>
        <mxCell id="tA5Uz_ItL0AC_Jkjv0OO-50" value="" style="endArrow=none;html=1;rounded=0;entryX=1;entryY=1;entryDx=0;entryDy=0;exitX=0.5;exitY=0;exitDx=0;exitDy=0;" parent="1" source="tA5Uz_ItL0AC_Jkjv0OO-48" target="tA5Uz_ItL0AC_Jkjv0OO-1" edge="1">
          <mxGeometry width="50" height="50" relative="1" as="geometry">
            <mxPoint x="-90" y="340" as="sourcePoint" />
            <mxPoint x="-130" y="290" as="targetPoint" />
            <Array as="points">
              <mxPoint x="-90" y="340" />
              <mxPoint x="-140" y="340" />
            </Array>
          </mxGeometry>
        </mxCell>
        <mxCell id="_jzDKBRbg1718fUS8csa-32" value="1" style="edgeLabel;html=1;align=center;verticalAlign=middle;resizable=0;points=[];" vertex="1" connectable="0" parent="tA5Uz_ItL0AC_Jkjv0OO-50">
          <mxGeometry x="-0.6923" relative="1" as="geometry">
            <mxPoint as="offset" />
          </mxGeometry>
        </mxCell>
        <mxCell id="tA5Uz_ItL0AC_Jkjv0OO-51" value="contacts" style="rounded=0;whiteSpace=wrap;html=1;" parent="1" vertex="1">
          <mxGeometry x="-60" y="540" width="120" height="50" as="geometry" />
        </mxCell>
        <mxCell id="tA5Uz_ItL0AC_Jkjv0OO-53" value="" style="endArrow=none;html=1;rounded=0;exitX=0.5;exitY=0;exitDx=0;exitDy=0;entryX=1;entryY=0.5;entryDx=0;entryDy=0;" parent="1" source="tA5Uz_ItL0AC_Jkjv0OO-51" target="tA5Uz_ItL0AC_Jkjv0OO-48" edge="1">
          <mxGeometry width="50" height="50" relative="1" as="geometry">
            <mxPoint x="70" y="409.63" as="sourcePoint" />
            <mxPoint x="-30" y="420" as="targetPoint" />
            <Array as="points">
              <mxPoint y="410" />
            </Array>
          </mxGeometry>
        </mxCell>
        <mxCell id="_jzDKBRbg1718fUS8csa-33" value="M" style="edgeLabel;html=1;align=center;verticalAlign=middle;resizable=0;points=[];" vertex="1" connectable="0" parent="tA5Uz_ItL0AC_Jkjv0OO-53">
          <mxGeometry x="-0.2833" relative="1" as="geometry">
            <mxPoint as="offset" />
          </mxGeometry>
        </mxCell>
        <mxCell id="tA5Uz_ItL0AC_Jkjv0OO-54" value="" style="endArrow=none;html=1;rounded=0;exitX=0;exitY=0.5;exitDx=0;exitDy=0;entryX=0.75;entryY=0;entryDx=0;entryDy=0;" parent="1" source="tA5Uz_ItL0AC_Jkjv0OO-46" target="tA5Uz_ItL0AC_Jkjv0OO-51" edge="1">
          <mxGeometry width="50" height="50" relative="1" as="geometry">
            <mxPoint x="240" y="409.38" as="sourcePoint" />
            <mxPoint x="40" y="410" as="targetPoint" />
            <Array as="points">
              <mxPoint x="30" y="410" />
            </Array>
          </mxGeometry>
        </mxCell>
        <mxCell id="_jzDKBRbg1718fUS8csa-9" value="M" style="edgeLabel;html=1;align=center;verticalAlign=middle;resizable=0;points=[];" vertex="1" connectable="0" parent="tA5Uz_ItL0AC_Jkjv0OO-54">
          <mxGeometry x="-0.7916" relative="1" as="geometry">
            <mxPoint as="offset" />
          </mxGeometry>
        </mxCell>
        <mxCell id="tA5Uz_ItL0AC_Jkjv0OO-56" value="" style="endArrow=none;html=1;rounded=0;entryX=0.25;entryY=1;entryDx=0;entryDy=0;exitX=0.5;exitY=0;exitDx=0;exitDy=0;" parent="1" source="_jzDKBRbg1718fUS8csa-11" target="tA5Uz_ItL0AC_Jkjv0OO-51" edge="1">
          <mxGeometry width="50" height="50" relative="1" as="geometry">
            <mxPoint y="720" as="sourcePoint" />
            <mxPoint x="-50" y="610" as="targetPoint" />
          </mxGeometry>
        </mxCell>
        <mxCell id="tA5Uz_ItL0AC_Jkjv0OO-64" value="" style="endArrow=none;html=1;rounded=0;exitX=1;exitY=1;exitDx=0;exitDy=0;entryX=1;entryY=0.5;entryDx=0;entryDy=0;" parent="1" source="tA5Uz_ItL0AC_Jkjv0OO-20" target="tA5Uz_ItL0AC_Jkjv0OO-69" edge="1">
          <mxGeometry width="50" height="50" relative="1" as="geometry">
            <mxPoint x="370" y="305" as="sourcePoint" />
            <mxPoint x="370" y="560" as="targetPoint" />
            <Array as="points">
              <mxPoint x="370" y="565" />
            </Array>
          </mxGeometry>
        </mxCell>
        <mxCell id="_jzDKBRbg1718fUS8csa-27" value="1" style="edgeLabel;html=1;align=center;verticalAlign=middle;resizable=0;points=[];" vertex="1" connectable="0" parent="tA5Uz_ItL0AC_Jkjv0OO-64">
          <mxGeometry x="0.188" relative="1" as="geometry">
            <mxPoint as="offset" />
          </mxGeometry>
        </mxCell>
        <mxCell id="tA5Uz_ItL0AC_Jkjv0OO-65" value="applies for" style="rhombus;whiteSpace=wrap;html=1;" parent="1" vertex="1">
          <mxGeometry x="-270" y="410" width="80" height="80" as="geometry" />
        </mxCell>
        <mxCell id="tA5Uz_ItL0AC_Jkjv0OO-66" value="" style="endArrow=none;html=1;rounded=0;entryX=0.25;entryY=1;entryDx=0;entryDy=0;exitX=0.5;exitY=0;exitDx=0;exitDy=0;" parent="1" source="tA5Uz_ItL0AC_Jkjv0OO-65" target="tA5Uz_ItL0AC_Jkjv0OO-1" edge="1">
          <mxGeometry width="50" height="50" relative="1" as="geometry">
            <mxPoint x="-230" y="400" as="sourcePoint" />
            <mxPoint x="-230" y="310" as="targetPoint" />
          </mxGeometry>
        </mxCell>
        <mxCell id="_jzDKBRbg1718fUS8csa-7" value="1" style="edgeLabel;html=1;align=center;verticalAlign=middle;resizable=0;points=[];" vertex="1" connectable="0" parent="tA5Uz_ItL0AC_Jkjv0OO-66">
          <mxGeometry x="-0.6744" y="-3" relative="1" as="geometry">
            <mxPoint as="offset" />
          </mxGeometry>
        </mxCell>
        <mxCell id="tA5Uz_ItL0AC_Jkjv0OO-68" value="" style="endArrow=none;html=1;rounded=0;entryX=0.5;entryY=1;entryDx=0;entryDy=0;exitX=0;exitY=0.5;exitDx=0;exitDy=0;" parent="1" source="tA5Uz_ItL0AC_Jkjv0OO-51" target="tA5Uz_ItL0AC_Jkjv0OO-65" edge="1">
          <mxGeometry width="50" height="50" relative="1" as="geometry">
            <mxPoint x="-230" y="570" as="sourcePoint" />
            <mxPoint x="-220" y="300" as="targetPoint" />
            <Array as="points">
              <mxPoint x="-230" y="565" />
            </Array>
          </mxGeometry>
        </mxCell>
        <mxCell id="_jzDKBRbg1718fUS8csa-6" value="M" style="edgeLabel;html=1;align=center;verticalAlign=middle;resizable=0;points=[];" vertex="1" connectable="0" parent="tA5Uz_ItL0AC_Jkjv0OO-68">
          <mxGeometry x="0.8752" y="1" relative="1" as="geometry">
            <mxPoint as="offset" />
          </mxGeometry>
        </mxCell>
        <mxCell id="tA5Uz_ItL0AC_Jkjv0OO-69" value="approves/&lt;br&gt;declines" style="rhombus;whiteSpace=wrap;html=1;" parent="1" vertex="1">
          <mxGeometry x="230" y="525" width="80" height="80" as="geometry" />
        </mxCell>
        <mxCell id="tA5Uz_ItL0AC_Jkjv0OO-70" value="" style="endArrow=none;html=1;rounded=0;entryX=1;entryY=0.5;entryDx=0;entryDy=0;exitX=0;exitY=0.5;exitDx=0;exitDy=0;" parent="1" source="tA5Uz_ItL0AC_Jkjv0OO-69" target="tA5Uz_ItL0AC_Jkjv0OO-51" edge="1">
          <mxGeometry width="50" height="50" relative="1" as="geometry">
            <mxPoint x="250" y="580" as="sourcePoint" />
            <mxPoint x="60" y="580" as="targetPoint" />
          </mxGeometry>
        </mxCell>
        <mxCell id="_jzDKBRbg1718fUS8csa-28" value="M" style="edgeLabel;html=1;align=center;verticalAlign=middle;resizable=0;points=[];" vertex="1" connectable="0" parent="tA5Uz_ItL0AC_Jkjv0OO-70">
          <mxGeometry x="-0.6831" y="-2" relative="1" as="geometry">
            <mxPoint as="offset" />
          </mxGeometry>
        </mxCell>
        <mxCell id="tA5Uz_ItL0AC_Jkjv0OO-71" value="Rates/&lt;br&gt;comment" style="rhombus;whiteSpace=wrap;html=1;" parent="1" vertex="1">
          <mxGeometry x="-210" y="460" width="80" height="80" as="geometry" />
        </mxCell>
        <mxCell id="tA5Uz_ItL0AC_Jkjv0OO-73" value="" style="endArrow=none;html=1;rounded=0;entryX=0.75;entryY=1;entryDx=0;entryDy=0;exitX=0.5;exitY=0;exitDx=0;exitDy=0;" parent="1" source="tA5Uz_ItL0AC_Jkjv0OO-71" target="tA5Uz_ItL0AC_Jkjv0OO-1" edge="1">
          <mxGeometry width="50" height="50" relative="1" as="geometry">
            <mxPoint x="-220" y="420" as="sourcePoint" />
            <mxPoint x="-220" y="300" as="targetPoint" />
          </mxGeometry>
        </mxCell>
        <mxCell id="_jzDKBRbg1718fUS8csa-30" value="1" style="edgeLabel;html=1;align=center;verticalAlign=middle;resizable=0;points=[];" vertex="1" connectable="0" parent="tA5Uz_ItL0AC_Jkjv0OO-73">
          <mxGeometry x="-0.6908" y="-1" relative="1" as="geometry">
            <mxPoint as="offset" />
          </mxGeometry>
        </mxCell>
        <mxCell id="tA5Uz_ItL0AC_Jkjv0OO-74" value="" style="endArrow=none;html=1;rounded=0;entryX=1;entryY=0.5;entryDx=0;entryDy=0;exitX=0.25;exitY=0;exitDx=0;exitDy=0;" parent="1" source="tA5Uz_ItL0AC_Jkjv0OO-51" target="tA5Uz_ItL0AC_Jkjv0OO-71" edge="1">
          <mxGeometry width="50" height="50" relative="1" as="geometry">
            <mxPoint x="-40" y="530" as="sourcePoint" />
            <mxPoint x="-220" y="500" as="targetPoint" />
            <Array as="points">
              <mxPoint x="-30" y="500" />
            </Array>
          </mxGeometry>
        </mxCell>
        <mxCell id="_jzDKBRbg1718fUS8csa-31" value="M" style="edgeLabel;html=1;align=center;verticalAlign=middle;resizable=0;points=[];" vertex="1" connectable="0" parent="tA5Uz_ItL0AC_Jkjv0OO-74">
          <mxGeometry x="0.5408" y="-1" relative="1" as="geometry">
            <mxPoint as="offset" />
          </mxGeometry>
        </mxCell>
        <mxCell id="tA5Uz_ItL0AC_Jkjv0OO-82" value="iglink" style="ellipse;whiteSpace=wrap;html=1;" parent="1" vertex="1">
          <mxGeometry x="-278.75" y="600" width="97.5" height="40" as="geometry" />
        </mxCell>
        <mxCell id="tA5Uz_ItL0AC_Jkjv0OO-83" value="fblink" style="ellipse;whiteSpace=wrap;html=1;" parent="1" vertex="1">
          <mxGeometry x="-260" y="660" width="97.5" height="40" as="geometry" />
        </mxCell>
        <mxCell id="tA5Uz_ItL0AC_Jkjv0OO-84" value="email" style="ellipse;whiteSpace=wrap;html=1;" parent="1" vertex="1">
          <mxGeometry x="-100.00000000000001" y="790" width="73.13" height="30" as="geometry" />
        </mxCell>
        <mxCell id="tA5Uz_ItL0AC_Jkjv0OO-85" value="phoneno" style="ellipse;whiteSpace=wrap;html=1;" parent="1" vertex="1">
          <mxGeometry x="-20" y="790" width="85.31" height="35" as="geometry" />
        </mxCell>
        <mxCell id="tA5Uz_ItL0AC_Jkjv0OO-86" value="weblink" style="ellipse;whiteSpace=wrap;html=1;" parent="1" vertex="1">
          <mxGeometry x="-162.5" y="760" width="73.13" height="30" as="geometry" />
        </mxCell>
        <mxCell id="tA5Uz_ItL0AC_Jkjv0OO-87" value="" style="endArrow=none;html=1;rounded=0;entryX=0;entryY=1;entryDx=0;entryDy=0;exitX=1;exitY=0.5;exitDx=0;exitDy=0;" parent="1" source="tA5Uz_ItL0AC_Jkjv0OO-82" target="tA5Uz_ItL0AC_Jkjv0OO-51" edge="1">
          <mxGeometry width="50" height="50" relative="1" as="geometry">
            <mxPoint x="10" y="750" as="sourcePoint" />
            <mxPoint x="10" y="600" as="targetPoint" />
          </mxGeometry>
        </mxCell>
        <mxCell id="tA5Uz_ItL0AC_Jkjv0OO-88" value="" style="endArrow=none;html=1;rounded=0;entryX=0.25;entryY=1;entryDx=0;entryDy=0;exitX=0.5;exitY=0;exitDx=0;exitDy=0;" parent="1" source="tA5Uz_ItL0AC_Jkjv0OO-83" target="tA5Uz_ItL0AC_Jkjv0OO-51" edge="1">
          <mxGeometry width="50" height="50" relative="1" as="geometry">
            <mxPoint x="-71" y="620" as="sourcePoint" />
            <mxPoint x="-50" y="600" as="targetPoint" />
          </mxGeometry>
        </mxCell>
        <mxCell id="tA5Uz_ItL0AC_Jkjv0OO-89" value="" style="endArrow=none;html=1;rounded=0;entryX=0.5;entryY=1;entryDx=0;entryDy=0;exitX=0.5;exitY=0;exitDx=0;exitDy=0;" parent="1" source="tA5Uz_ItL0AC_Jkjv0OO-86" target="tA5Uz_ItL0AC_Jkjv0OO-51" edge="1">
          <mxGeometry width="50" height="50" relative="1" as="geometry">
            <mxPoint x="-59" y="665" as="sourcePoint" />
            <mxPoint x="-20" y="600" as="targetPoint" />
          </mxGeometry>
        </mxCell>
        <mxCell id="tA5Uz_ItL0AC_Jkjv0OO-90" value="" style="endArrow=none;html=1;rounded=0;entryX=0.5;entryY=1;entryDx=0;entryDy=0;exitX=0.5;exitY=0;exitDx=0;exitDy=0;" parent="1" source="tA5Uz_ItL0AC_Jkjv0OO-84" target="tA5Uz_ItL0AC_Jkjv0OO-51" edge="1">
          <mxGeometry width="50" height="50" relative="1" as="geometry">
            <mxPoint x="53" y="665" as="sourcePoint" />
            <mxPoint x="40" y="600" as="targetPoint" />
          </mxGeometry>
        </mxCell>
        <mxCell id="tA5Uz_ItL0AC_Jkjv0OO-91" value="" style="endArrow=none;html=1;rounded=0;entryX=0.75;entryY=1;entryDx=0;entryDy=0;exitX=0.5;exitY=0;exitDx=0;exitDy=0;" parent="1" source="tA5Uz_ItL0AC_Jkjv0OO-85" target="tA5Uz_ItL0AC_Jkjv0OO-51" edge="1">
          <mxGeometry width="50" height="50" relative="1" as="geometry">
            <mxPoint x="102" y="655" as="sourcePoint" />
            <mxPoint x="70" y="600" as="targetPoint" />
          </mxGeometry>
        </mxCell>
        <mxCell id="_jzDKBRbg1718fUS8csa-1" value="user_type" style="ellipse;whiteSpace=wrap;html=1;" vertex="1" parent="1">
          <mxGeometry x="-135" y="120" width="75" height="40" as="geometry" />
        </mxCell>
        <mxCell id="_jzDKBRbg1718fUS8csa-2" value="" style="endArrow=none;html=1;rounded=0;entryX=0.5;entryY=1;entryDx=0;entryDy=0;exitX=1;exitY=0;exitDx=0;exitDy=0;" edge="1" parent="1" source="tA5Uz_ItL0AC_Jkjv0OO-1" target="_jzDKBRbg1718fUS8csa-1">
          <mxGeometry width="50" height="50" relative="1" as="geometry">
            <mxPoint x="-190" y="250" as="sourcePoint" />
            <mxPoint x="-167" y="170" as="targetPoint" />
          </mxGeometry>
        </mxCell>
        <mxCell id="_jzDKBRbg1718fUS8csa-3" value="user_type" style="ellipse;whiteSpace=wrap;html=1;" vertex="1" parent="1">
          <mxGeometry x="460" y="180" width="75" height="40" as="geometry" />
        </mxCell>
        <mxCell id="_jzDKBRbg1718fUS8csa-4" value="" style="endArrow=none;html=1;rounded=0;entryX=0.5;entryY=1;entryDx=0;entryDy=0;exitX=1;exitY=0.25;exitDx=0;exitDy=0;" edge="1" parent="1" target="_jzDKBRbg1718fUS8csa-3" source="tA5Uz_ItL0AC_Jkjv0OO-20">
          <mxGeometry width="50" height="50" relative="1" as="geometry">
            <mxPoint x="510" y="290" as="sourcePoint" />
            <mxPoint x="483" y="220" as="targetPoint" />
          </mxGeometry>
        </mxCell>
        <mxCell id="_jzDKBRbg1718fUS8csa-11" value="c_id" style="ellipse;whiteSpace=wrap;html=1;" vertex="1" parent="1">
          <mxGeometry x="-226.25" y="710" width="97.5" height="40" as="geometry" />
        </mxCell>
        <mxCell id="_jzDKBRbg1718fUS8csa-13" value="designation" style="ellipse;whiteSpace=wrap;html=1;" vertex="1" parent="1">
          <mxGeometry x="40" y="825" width="85.31" height="35" as="geometry" />
        </mxCell>
        <mxCell id="_jzDKBRbg1718fUS8csa-14" value="" style="endArrow=none;html=1;rounded=0;entryX=0.75;entryY=1;entryDx=0;entryDy=0;exitX=0.5;exitY=0;exitDx=0;exitDy=0;" edge="1" parent="1" source="_jzDKBRbg1718fUS8csa-13" target="tA5Uz_ItL0AC_Jkjv0OO-51">
          <mxGeometry width="50" height="50" relative="1" as="geometry">
            <mxPoint x="192" y="665" as="sourcePoint" />
            <mxPoint x="120" y="600" as="targetPoint" />
          </mxGeometry>
        </mxCell>
        <mxCell id="_jzDKBRbg1718fUS8csa-15" value="name" style="ellipse;whiteSpace=wrap;html=1;" vertex="1" parent="1">
          <mxGeometry x="104.69" y="715" width="85.31" height="35" as="geometry" />
        </mxCell>
        <mxCell id="_jzDKBRbg1718fUS8csa-16" value="" style="endArrow=none;html=1;rounded=0;entryX=1;entryY=1;entryDx=0;entryDy=0;exitX=0.5;exitY=0;exitDx=0;exitDy=0;" edge="1" parent="1" source="_jzDKBRbg1718fUS8csa-15" target="tA5Uz_ItL0AC_Jkjv0OO-51">
          <mxGeometry width="50" height="50" relative="1" as="geometry">
            <mxPoint x="282" y="655" as="sourcePoint" />
            <mxPoint x="120" y="580" as="targetPoint" />
          </mxGeometry>
        </mxCell>
        <mxCell id="_jzDKBRbg1718fUS8csa-17" value="location" style="ellipse;whiteSpace=wrap;html=1;" vertex="1" parent="1">
          <mxGeometry x="179.68999999999997" y="690" width="85.31" height="35" as="geometry" />
        </mxCell>
        <mxCell id="_jzDKBRbg1718fUS8csa-18" value="" style="endArrow=none;html=1;rounded=0;entryX=1;entryY=1;entryDx=0;entryDy=0;exitX=0.5;exitY=0;exitDx=0;exitDy=0;" edge="1" parent="1" source="_jzDKBRbg1718fUS8csa-17" target="tA5Uz_ItL0AC_Jkjv0OO-51">
          <mxGeometry width="50" height="50" relative="1" as="geometry">
            <mxPoint x="354.5" y="615" as="sourcePoint" />
            <mxPoint x="132.5" y="550" as="targetPoint" />
          </mxGeometry>
        </mxCell>
        <mxCell id="_jzDKBRbg1718fUS8csa-19" value="description" style="ellipse;whiteSpace=wrap;html=1;" vertex="1" parent="1">
          <mxGeometry x="264.69000000000005" y="655" width="85.31" height="35" as="geometry" />
        </mxCell>
        <mxCell id="_jzDKBRbg1718fUS8csa-20" value="" style="endArrow=none;html=1;rounded=0;entryX=1;entryY=1;entryDx=0;entryDy=0;exitX=0.5;exitY=0;exitDx=0;exitDy=0;" edge="1" parent="1" source="_jzDKBRbg1718fUS8csa-19" target="tA5Uz_ItL0AC_Jkjv0OO-51">
          <mxGeometry width="50" height="50" relative="1" as="geometry">
            <mxPoint x="394.5" y="565" as="sourcePoint" />
            <mxPoint x="100" y="540" as="targetPoint" />
          </mxGeometry>
        </mxCell>
        <mxCell id="_jzDKBRbg1718fUS8csa-22" value="photo" style="ellipse;whiteSpace=wrap;html=1;" vertex="1" parent="1">
          <mxGeometry x="-70.00000000000001" y="830" width="73.13" height="30" as="geometry" />
        </mxCell>
        <mxCell id="_jzDKBRbg1718fUS8csa-23" value="" style="endArrow=none;html=1;rounded=0;entryX=0.75;entryY=1;entryDx=0;entryDy=0;exitX=0.5;exitY=0;exitDx=0;exitDy=0;" edge="1" parent="1" source="_jzDKBRbg1718fUS8csa-22" target="tA5Uz_ItL0AC_Jkjv0OO-51">
          <mxGeometry width="50" height="50" relative="1" as="geometry">
            <mxPoint x="83" y="730" as="sourcePoint" />
            <mxPoint x="30" y="655" as="targetPoint" />
          </mxGeometry>
        </mxCell>
        <mxCell id="_jzDKBRbg1718fUS8csa-24" value="document" style="ellipse;whiteSpace=wrap;html=1;" vertex="1" parent="1">
          <mxGeometry x="80" y="780" width="85.31" height="35" as="geometry" />
        </mxCell>
        <mxCell id="_jzDKBRbg1718fUS8csa-25" value="" style="endArrow=none;html=1;rounded=0;entryX=0.75;entryY=1;entryDx=0;entryDy=0;exitX=0.5;exitY=0;exitDx=0;exitDy=0;" edge="1" parent="1" source="_jzDKBRbg1718fUS8csa-24" target="tA5Uz_ItL0AC_Jkjv0OO-51">
          <mxGeometry width="50" height="50" relative="1" as="geometry">
            <mxPoint x="304.35" y="730" as="sourcePoint" />
            <mxPoint x="82.35" y="665" as="targetPoint" />
          </mxGeometry>
        </mxCell>
        <mxCell id="_jzDKBRbg1718fUS8csa-35" value="status" style="ellipse;whiteSpace=wrap;html=1;" vertex="1" parent="1">
          <mxGeometry x="264.69000000000005" y="710" width="85.31" height="35" as="geometry" />
        </mxCell>
        <mxCell id="_jzDKBRbg1718fUS8csa-36" value="" style="endArrow=none;html=1;rounded=0;exitX=0.5;exitY=0;exitDx=0;exitDy=0;entryX=1;entryY=1;entryDx=0;entryDy=0;" edge="1" parent="1" source="_jzDKBRbg1718fUS8csa-35" target="tA5Uz_ItL0AC_Jkjv0OO-51">
          <mxGeometry width="50" height="50" relative="1" as="geometry">
            <mxPoint x="414.5" y="605" as="sourcePoint" />
            <mxPoint x="200" y="590" as="targetPoint" />
          </mxGeometry>
        </mxCell>
      </root>
    </mxGraphModel>
  </diagram>
</mxfile>
